<svg id="ewJilkyh3Pu1" xmlns="http://www.w3.org/2000/svg" xmlns:xlink="http://www.w3.org/1999/xlink"
    viewBox="0 0 963 259" shape-rendering="geometricPrecision" text-rendering="geometricPrecision"
    project-id="cb33f7f838d54ffea5806af3a5a64fb3" export-id="d38534605be34c3dba387a5444e55d1e" cached="false">
    <path
        d="M712.007935,61.177246c-.002808,20.13311-.09845,39.789238.057067,59.443382.037903,4.79155-1.84967,6.437561-6.510681,6.40741-10.001465-.064712-16.54657-5.114632-20.55249-15.710319-1.004028-2.655747-3.483581-4.734589-5.180054-7.152207-2.393432-3.410721-4.689148-6.890022-7.874817-11.591965c0,10.154145.027832,18.756035-.009948,27.357636-.024597,5.617187-1.374695,6.916611-7.057373,7.02462-12.834168.243942-12.827515.24395-12.818665-12.762802.012146-17.823136.00116-35.646279.025391-53.469387.008301-6.054722.651245-6.131272,6.530456-6.856682c8.367737-1.032471,13.454224,2.263649,17.585388,9.448902c4.605713,8.01075,10.42804,15.322037,16.832032,22.514084c0-8.415901.171692-16.83667-.066651-25.245815-.135315-4.775257,1.301148-7.26072,6.480225-6.627755c1.968689.240605,3.992859.010056,5.991577.024445c6.45929.046494,6.459229.051899,6.568543,7.196453Z"
        transform="translate(-35 0)" fill="#2a7dc0" />
    <path
        d="M283.877258,130.798859c-4.890258-7.18293-10.420074-12.866951-18.601684-15.917778-14.966675-5.580887-31.014847,3.879486-36.480896,17.463859-5.324723,13.233093,1.046524,29.66095,14.475143,36.40802c14.132614,7.1008,30.096237,2.226944,38.255783-11.528625.79007-1.331925,2.47995-2.929886,3.822907-2.997483c6.292389-.316635,12.609588-.140701,20.038757-.140701-.903747,5.380051-1.2612,10.417603-2.63147,15.162674-5.968506,20.668182-16.019012,39.014496-31.6445,54.086502-12.929444,12.471466-28.276566,20.829132-46.025956,22.369705-20.953094,1.81865-42.083084,1.815628-63.142852,2.071762-7.398545.089982-13.553406-3.49002-17.082337-10.449157-3.504257-6.910507-2.424713-13.585785,2.321488-19.298188c2.171157-2.613159,5.545486-5.225158,8.734268-5.784484c6.452484-1.131791,13.149429-.963395,19.749176-1.047303.851639-.010803,1.90805,1.547135,2.560242,2.574738c9.509475,14.983185,27.468109,20.545914,43.029754,9.690033c12.800888-8.929932,15.582901-28.521149,6.841599-40.236252-9.433396-12.64267-25.553315-15.241089-37.610871-8.911285-4.82753,2.534286-9.207519,6.042266-11.650818,11.404785-.502578,1.103058-2.446899,2.197006-3.730529,2.201538-31.165421.110275-62.331826.15654-93.496865-.008637-6.443702-.034134-13.088195-7.668396-13.613609-14.128372-1.117981-13.745651,7.657021-19.692825,19.380066-19.714798c28.832542-.054062,57.665268-.00856,86.497864-.048034c7.71817-.01056,12.321304-4.677567,12.192535-12.151856-.109344-6.347092-5.037292-10.861999-12.108612-10.879303-19.332718-.047348-38.666275-.118774-57.998268.008209-16.081253.105652-22.09227-13.360046-16.22348-25.86502c2.150833-4.582909,6.858238-8.042885,12.640846-8.070321c20.66568-.098053,41.332581-.105293,61.997208.069397c1.50975.012764,3.602829,1.394051,4.412902,2.745552c6.927384,11.557541,17.454972,15.290734,30.181305,14.10495c10.30098-.959816,21.274765-10.347686,23.587433-21.139556c3.631989-16.948403-5.605072-32.065228-22.85376-36.090184-11.147415-2.60123-27.226318,4.757153-31.277114,15.020436-.416932,1.056366-2.47461,2.058746-3.784531,2.076355-11.830902.159111-23.667313.241699-35.497055.044166-8.974686-.149864-16.28682-8.498146-16.136566-17.932709.143005-8.980495,7.319107-15.945037,16.607681-15.955268c25.832443-.028458,51.684616-.623429,77.491898.186676c25.448822.798847,46.135131,11.764667,62.494537,31.683616c13.038696,15.87574,20.968689,33.74466,25.049774,53.598145.323944,1.576019.224152,3.239158.354187,5.411598-7.144836,0-13.929046,0-21.12558-.087402Z"
        transform="matrix(.732249 0 0 0.732207 47.973743 14.5016)" fill="#297ec1" />
    <path
        d="M391.251831,67.719681c5.16153,7.870392,8.545288,15.82679,7.762634,25.226036-1.382751,16.606148-14.817779,32.747833-33.771911,33.936004-7.792328.488472-15.643616-.041236-23.463654.114754-3.983307.079453-5.778107-1.420563-5.76358-5.508346.074554-20.972939.099762-41.946656-.02478-62.919106-.021088-3.550861,1.304992-4.656708,4.685577-4.602348c8.986145.144485,18.011749-.439701,26.954681.200901c9.658997.691891,17.407288,5.653034,23.621033,13.552105M355.16214,73.861649c0,10.906196,0,21.812385,0,33.083076c6.218536-.160301,12.085937,1.255234,17.325287-3.030495c5.748749-4.702392,7.93695-10.902107,6.278381-17.605087-1.435791-5.802597-4.545044-11.461327-11.707703-12.382576-3.718811-.478294-7.494995-.510536-11.895965-.064918Z"
        transform="translate(-35 0)" fill="#2a7ec0" />
    <path
        d="M450.027008,72.98851c-3.796478-.000526-7.097656-.000526-10.726227-.000526c0,2.758835,0,5.132652,0,8.033981c6.486573,0,12.778076.144508,19.058441-.057335c3.448914-.11084,4.751862,1.074799,4.671753,4.5821-.370849,16.243324,2.267945,13.081001-12.804199,13.427513-3.480713.080025-6.964813.01181-10.849243.01181c0,2.608429,0,4.984589,0,8.051568c8.031433,0,16.133362-.026276,24.234985.008209c6.621643.028183,7.334839.782669,7.358338,7.497253.047607,13.602898.87857,12.433243-12.307923,12.418526-10.822845-.012077-21.645782.03244-32.468444-.009468-5.643403-.021858-7.134766-1.474083-7.144196-6.976235-.033691-19.647544-.044525-39.295234-.00647-58.942752.011566-5.977749,1.081879-7.020722,6.880951-7.030373c12.987335-.021614,25.976074.103657,38.961426-.056473c4.552917-.056141,6.202606,1.823635,6.141388,6.24778-.186188,13.462643,1.359833,12.923016-12.513031,12.796345-2.66388-.02433-5.328125-.002136-8.487549-.001923Z"
        transform="translate(-35 0)" fill="#297ec1" />
    <path
        d="M853.024658,107.029541c5.323303.001099,10.150879-.031944,14.9776.01503c3.809571.037071,5.857605,2.076782,5.865479,5.839233.029419,14.012268,1.552612,14.304787-13.392578,14.103646-10.651245-.143372-21.308838-.169434-31.957825.04277-4.638123.092438-6.577942-1.454163-6.539734-6.300171.158936-20.139839.119019-40.282112-.001587-60.422569-.025879-4.332195,1.376465-6.426087,6.011841-6.373127c13.314758.152122,26.634216.182484,39.947693-.016338c4.449951-.066456,5.845764,2.124382,5.996948,5.968002.006531.166233.005371.332912.003296.499325-.165894,12.983638,1.767639,12.742229-12.092224,12.615818-6.452026-.058853-12.904968-.010064-19.642822-.010064c0,2.75364,0,5.016823,0,8.024468c5.926818,0,11.861267.154648,17.783203-.052155c4.235779-.147911,6.101501,1.470505,5.988464,5.787087-.335754,12.811928,2.448975,12.276657-12.197876,12.240723-3.787048-.009293-7.574097-.001397-11.603332-.001397c0,2.78711,0,5.050011,0,8.040093c3.493408,0,6.925415,0,10.853454-.000374Z"
        transform="translate(-35 0)" fill="#2a7ec0" />
    <path
        d="M628.973511,110.915123c1.155334,3.289352,2.348877,6.156654,3.439575,9.062538c1.584839,4.22216-.109436,6.768829-4.56543,6.972649-13.430176.614311-13.430176.614311-18.359558-12.810959-6.554077,0-13.179504,0-19.617126,0-.322815.192497-.538819.24308-.579956.356834-5.523072,15.294129-3.730591,12.136124-19.526917,12.415871-3.922485.069458-5.134643-2.152061-3.807983-5.853691c4.514465-12.596474,8.963257-25.216522,13.482177-37.811401c3.144227-8.763222,6.244568-17.546525,9.670472-26.199753.532165-1.344101,2.579101-2.452038,4.149292-2.922741c1.681213-.503979,3.627075-.130406,5.457397-.130852c10.850159-.002644,10.813171.124111,14.216492,10.199345c5.228454,15.478355,10.6781,30.882003,16.041565,46.72216M599.044312,81.197456c-1.590271,5.137802-3.180481,10.275605-4.809144,15.537728c3.848816,0,7.041932,0,10.802247,0-1.921753-5.607476-3.70044-10.797386-5.993103-15.537728Z"
        transform="translate(-35 0)" fill="#2a7ec0" />
    <path
        d="M738.725342,110.293518c-9.800293-14.31752-6.859925-35.85099,5.611755-47.422005c11.781189-10.930359,25.235596-13.440559,39.994385-8.623932c4.957397,1.617875,9.381714,5.253476,13.630066,8.513688c2.499451,1.918121,2.762878,4.801422-.3302,7.045417-1.40979,1.022797-2.710694,2.194443-4.082581,3.271058-3.829101,3.005142-6.646606,4.935791-12.383545,1.363891-12.896057-8.029266-25.946289-.387146-28.844726,13.178726-1.503846,7.038338,1.797241,13.002564,7.260559,17.353661c5.161987,4.111069,11.124756,5.56427,17.571289,2.986626c1.519287-.607552,3.252258-1.123269,4.371032-2.211579c4.288086-4.171173,7.60492-1.770309,10.92334,1.28534.734925.676719,1.410584,1.417274,2.131714,2.10942c5.893128,5.656365,5.718506,7.899392-.903686,12.441025-15.050476,10.321869-38.968506,9.248688-51.872925-6.404167-1.135681-1.377548-1.912537-3.050987-3.076477-4.887169Z"
        transform="translate(-35 0)" fill="#2a7dbf" />
    <path
        d="M900.210449,53.992294c12.050171-3.279064,15.654236,5.992791,20.668152,12.946221c1.020691,1.415558,1.556946,3.18042,2.692505,5.578087c2.851196-4.498673,5.574402-8.314652,7.784363-12.407727c2.599914-4.815258,6.273437-6.870598,11.710998-6.193504c2.459534.306255,4.987854.019958,7.481934.09803c4.567871.14299,5.677856,1.7565,3.33435,5.899483-4.188781,7.405025-8.604187,14.697834-13.263671,21.815716-4.007386,6.121757-7.650879,12.036117-6.838379,19.952575.642273,6.25689.041626,12.635147.12445,18.957779.057007,4.346153-1.933532,6.320694-6.271423,6.362808-16.09259.156212-13.506958-.361183-13.583557-12.827613-.02655-4.326699-.438477-8.709336.104126-12.967217.763611-5.992195-1.426453-10.956276-4.361694-15.728264-4.716065-7.667297-9.719849-15.157463-14.44629-22.818573-1.223022-1.98241-1.866699-4.32225-2.776428-6.497909c2.393067-.723381,4.786133-1.446762,7.640564-2.169892Z"
        transform="translate(-35 0)" fill="#2a7dbf" />
    <path
        d="M506.115753,126.968048c-2.147949-.010795-4.121338.539787-5.406402-.164848-1.815766-.995629-4.428833-2.900788-4.450318-4.448433-.294159-21.156861-.195099-42.319107-.207031-63.48003-.001862-3.296856,1.628204-4.868473,4.890411-4.860958c2.499176.005756,4.998505-.047688,7.497589-.036595c6.623658.0294,7.491578.855534,7.502076,7.400952.020935,12.996437-.005127,25.99295-.011414,38.989433-.000915,1.97477-.000122,3.949539-.000122,6.671555c7.779724,0,15.210449-.022439,22.640991.007057c6.007385.023849,7.263123,1.288482,7.349488,7.231445.184326,12.680611.184326,12.684265-12.33075,12.692131-8.997559.005661-17.995117-.000046-27.474518-.001709Z"
        transform="translate(-35 0)" fill="#2b7dbf" />
    <path
        d="M555.965332,152.047638c3.472107,5.190964,6.850647,10.027664,11.064636,16.060348c0-5.795715-.287475-10.46762.126038-15.076629.195129-2.174713,1.263916-5.502808,2.768188-6.05867c2.700806-.998078,6.082154-.613007,9.062073-.111054.865906.145859,1.883057,2.649887,1.898438,4.082962.147033,13.659165.052673,27.32071.129272,40.981003.016968,3.016495-1.252747,3.850815-4.180969,4.132431-5.528504.531693-9.242005-.992325-11.995178-6.221863-2.778992-5.278625-6.675721-9.968811-10.899109-16.102249c0,6.399872-.125428,11.464966.039367,16.5206.13385,4.105423-1.165649,5.966964-5.703613,5.804794-8.166504-.29187-8.184509-.04245-8.1922-8.324783-.010681-11.495148-.142456-22.993256.10553-34.483002.050415-2.336258,1.207398-6.362076,2.460388-6.615784c2.954895-.598343,6.387268.259125,9.400696,1.229202c1.526917.491547,2.564331,2.503739,3.916443,4.182694Z"
        transform="translate(-35 0)" fill="#2b7dbe" />
    <path
        d="M643.978149,174.63269c-3.351318,18.870743-21.998901,27.434937-38.346313,19.460785-8.713928-4.25061-14.990845-16.143875-13.487915-25.379669c1.988769-12.221252,8.173035-19.337616,19.093201-22.646652c15.44049-4.678757,35.562255,7.940887,32.741027,28.565536m-13.915893-6.189666c-2.319214-7.836762-7.993103-11.332093-15.32013-9.43779-5.598205,1.447326-10.677368,8.773727-9.475585,13.667999c1.68048,6.843704,8.891662,12.24794,14.586853,10.931747c7.517456-1.737335,11.527893-7.351654,10.208862-15.161956Z"
        transform="translate(-35 0)" fill="#2b7dbe" />
    <path
        d="M733.004883,147.964081c11.182617,4.505173,16.374389,15.918701,14.421203,27.396622-.954406,5.608352-3.024719,9.923461-7.055236,13.977691-9.810669,9.868515-25.456055,10.25856-35.718811.876343-9.270813-8.475372-10.344971-18.557861-6.359436-29.470718c3.573364-9.784531,11.788757-14.443955,21.617065-15.455338c4.103088-.422241,8.464661,1.666,13.095215,2.6754m-15.819092,11.369415c-7.721313,5.682999-9.571899,10.648041-6.382324,17.124024c2.78656,5.657745,9.598327,8.424774,15.695679,6.375885c5.557434-1.867447,9.029052-8.594635,7.557861-14.645585-1.788025-7.353927-7.302368-10.475387-16.871216-8.854324Z"
        transform="translate(-35 0)" fill="#2b7dbe" />
    <path
        d="M805.092468,186.586212c-8.03247,13.128052-27.314514,12.34082-34.962707,6.749542-12.341858-9.022689-16.427368-23.161743-7.959839-36.298568c7.200134-11.170456,20.523987-14.897751,32.950073-9.281403.440979.19931.816589.577499,1.173401.923142c2.22168,2.151947,4.42926,4.318389,6.641541,6.480011-2.555481,2.359375-4.962952,4.925125-7.768128,6.936172-.720215.516388-2.821289-.488037-4.072143-1.182465-8.286499-4.600189-16.336731-1.750717-19.134278,6.868058-1.972656,6.077621.366272,11.407211,6.626892,15.10057c4.350586,2.566574,10.052674,1.463807,15.458985-3.952682-3.263001,0-5.397827-.031906-7.531311.007034-3.751099.068466-4.672913-1.987076-4.553528-5.380462.115845-3.292023-.178955-6.520249,4.501709-6.513474c5.161255.007477,10.32373-.053574,15.483276.044464c2.697571.051254,4.25061,1.303269,4.037476,4.333573-.346253,4.922668-.509156,9.8582-.891419,15.166488Z"
        transform="translate(-35 0)" fill="#2b7dbe" />
    <path
        d="M487.112457,149.640747c2.62262-4.93042,6.851136-3.858185,10.608033-3.148758c4.021881.759476,3.228057,4.361344,3.252532,7.269394.026551,3.153412.006043,6.307205.006043,9.870956c3.927887,0,7.639648,0,12.052124,0c0-4.196395-.072022-8.463882.018494-12.727935.110168-5.190598,4.007446-4.714646,7.473388-4.842163c3.42981-.126191,5.590576.716812,5.541809,4.929184-.171142,14.781143-.066406,29.56546-.066406,44.066848-.820984.442322-1.09314.708039-1.381592.727188-11.600647.770234-11.60083.767365-11.599487-10.657577.000244-2.144058.000061-4.288101.000061-6.795426-4.02832,0-7.737793,0-12.040527,0c0,3.848084-.325165,7.66391.078308,11.401063.567138,5.253219-1.621704,7.005508-6.537476,6.231185-.650055-.102401-1.34079-.08966-1.994842.000016-4.187744.574325-5.554596-1.498032-5.525238-5.406235.101379-13.491074.066467-26.9832.114776-40.91774Z"
        transform="translate(-35 0)" fill="#2b7dbf" />
    <path
        d="M920.382935,196.786835c-8.992188.276428-17.539429.661361-25.133973-4.665329-2.416015-1.69455-2.712402-2.717652-.889465-5.022553c5.492493-6.94458,5.375855-6.892822,14.185913-4.118362c4.460877,1.404831,9.122009,2.66011,14.032593-1.939972-3.21405-1.509949-5.722412-2.929901-8.396057-3.888458-4.136109-1.482834-8.449219-2.476487-12.570252-3.99527-5.279236-1.945664-7.625366-5.499542-7.517212-11.353729.104187-5.640519,1.483948-10.581345,7.23993-13.447327c9.409973-4.685364,18.583496-4.162277,27.818969.31131c2.710694,1.313049,4.294739,2.935501,2.457032,6.05954-3.520325,5.984344-5.693177,7.211547-9.204895,5.133056-5.597046-3.312759-11.415162-2.749176-14.865174,2.278565c3.661988,1.027023,7.045288,1.820602,10.319214,2.935318c3.680664,1.253173,7.493775,2.39122,10.838074,4.299896c6.391479,3.647842,8.160583,9.892837,6.012268,16.353332-1.915588,5.760849-6.096008,10.218094-13.062988,10.420807-.284302.008286-.559632.325989-1.263977.639176Z"
        transform="translate(-35 0)" fill="#2b7dbe" />
    <path
        d="M400.131897,163.871429c5.14035.811783,10.200745,1.17186,15.533356,1.5513c0,3.677674,0,7.262742,0,11.331467-5.011414,0-9.934174,0-15.228791,0-.195221,1.815247-.343811,3.196716-.600189,5.580429c7.100464,0,13.798645,0,19.935028,0c.734711,1.245774,1.02649,1.518997,1.051392,1.814713.995514,11.813339.992401,11.814758-10.697754,11.813522-6.665039-.000717-13.33139-.085235-19.994476.026917-2.971192.050003-4.145722-1.031327-4.122132-4.093735.103913-13.495987.142395-26.994675-.038238-40.489136-.046936-3.508438,1.782135-5.125351,4.603363-5.207321c8.82254-.256439,17.657532-.182556,26.48587-.078857c2.616181.030731,4.337006,1.28482,3.957581,4.378112-.201416,1.641709-.174103,3.340714-.015564,4.991333.34732,3.614746-1.393646,4.655197-4.741242,4.510392-4.324005-.187058-8.667053.083877-12.993255-.076157-2.678711-.099075-3.674439.919785-3.134949,3.947021Z"
        transform="translate(-35 0)" fill="#2c7dbd" />
    <path
        d="M848.599792,195.659393c-.811401-1.730972-1.52948-3.27481-1.540771-4.823791-.095581-13.1568.052979-26.316239-.138977-39.470963-.057007-3.90541,1.467346-5.352615,5.169067-5.322174c7.827332.064423,15.656617-.071029,23.483338.024048c5.571106.067673,6.257995,1.20813,6.437378,7.486038.132751,4.646744-1.521668,6.73436-6.368409,6.461975-4.960937-.278839-9.949707-.061782-15.318176-.061782-.11969,1.688964-.217346,3.066299-.359253,5.06871c4.474427,0,8.593079.105423,12.70398-.027908c4.657165-.151047,4.25769,3.134307,4.286316,6.081161.029419,3.026291.199951,6.162018-4.420472,5.940628-3.961303-.189819-7.938903-.039307-12.22821-.039307c0,1.771622,0,3.145997,0,5.0625c5.21991,0,10.363159-.252807,15.459839.124131c2.045044.15126,5.438476,1.391479,5.694519,2.649597.664062,3.263626.065674,6.831879-.41217,10.224563-.065491.465073-2.312012.877778-3.550416.88237-9.492004.035264-18.984436-.036529-28.897583-.259796Z"
        transform="translate(-35 0)" fill="#2c7dbe" />
    <path
        d="M431.02475,170.137085c.839386-11.295441,6.507843-18.841171,16.315094-23.000855c10.233825-4.340637,19.5336-1.612411,27.88678,5.099137.801544.644012,1.729095,2.594513,1.469879,2.867645-2.422547,2.552429-4.938111,5.086533-7.789276,7.116821-.788208.561295-2.981141-.256378-4.200226-.989212-8.546234-5.137451-16.674897-2.421417-19.630616,6.887818-1.422729,4.481033-.108642,8.740722,3.133667,11.902313c4.205292,4.100616,9.547638,4.71991,13.901246,2.344101c5.778289-3.153244,10.025329-2.090851,13.156768,3.692566.58664,1.083435.322327,3.56897-.523651,4.34436-11.095031,10.168808-31.249969,9.211167-39.830902-5.85997-2.491028-4.375153-4.662109-8.722793-3.888763-14.404724Z"
        transform="translate(-35 0)" fill="#2b7dbe" />
    <path
        d="M360.966309,192.578949c-2.062012,6.265213-6.863465,2.357498-10.307129,3.078384-.504364.105606-2.493012-3.343902-2.540711-5.180999-.258423-9.955735-.122619-19.921708-.122619-30.531586-3.178528,0-5.963379-.129929-8.730835.033554-3.305939.195297-4.565461-1.260178-4.274231-4.452271.135742-1.487564.086212-2.99887.028198-4.495849-.127228-3.281723,1.374084-4.995667,4.693603-4.995682c9.996674-.00003,19.993348.009415,29.990021.023407c3.07605.004303,4.582977,1.464447,4.24353,4.625168-.05307.494171-.01004.998917-.007507,1.498749.039215,7.70906.039368,7.711029-7.863617,7.777557-1.473327.012405-2.946869.001785-5.095856.001785c0,10.957825,0,21.556946-.012847,32.617783Z"
        transform="translate(-35 0)" fill="#2b7dbe" />
    <path
        d="M74.574379,44.316303c3.392872-4.870475,13.293038-5.568626,17.74011-2.601456c4.815069,3.212704,7.014158,9.777018,5.071788,15.880666-2.329661,7.32063-10.237138,10.988765-17.302443,8.196295-8.450104-3.339799-9.59566-12.914073-7.030268-18.431986.436737-.939391.910612-1.86066,1.520813-3.043518Z"
        transform="translate(35 2)" fill="#de0a17" />
    <path
        d="M16.419645,164.935542c1.489671-6.784964,5.963414-10.027754,11.843377-10.616497c5.039791-.504602,9.971219,1.048155,13.087569,7.540491c3.783058,7.881275-1.428426,19.012509-10.266103,19.150825-10.14344.158744-15.300652-5.220268-14.664843-16.07482Z"
        transform="translate(50-27)" fill="#de0a17" />
    <path
        d="M672.172058,182.037292c5.390503.011582,10.303894.011582,14.578796.011582.801453,1.533081,1.067261,1.816055,1.089905,2.117294.885681,11.784271.882752,11.787354-10.695068,11.794083-5.989868.003494-11.981506-.092804-17.968872.028717-2.963379.06015-4.202149-1.049393-4.187195-4.074371.068359-13.80954.059753-27.619904-.017029-41.429444-.027405-4.92868,3.378113-4.439346,6.533997-4.406799c3.127014.032226,6.556396-.526215,6.484985,4.465256-.13092,9.149246.045838,18.302978-.091919,27.452026-.042969,2.850449.530396,4.561157,4.2724,4.041656Z"
        transform="translate(-35 0)" fill="#2c7dbd" />
    <path
        d="M832.994995,187.865356c-.009582,7.545258-4.378967,10.593277-10.961426,7.866013-.971313-.402451-1.868896-2.289261-1.881714-3.499039-.147522-13.948089-.093688-27.898147-.146911-41.847488-.02063-5.4086,4.001892-4.172943,7.055847-4.300171c3.04718-.126984,6.019226-.132202,5.969238,4.431427-.134582,12.287628-.039367,24.577774-.035034,37.349258Z"
        transform="translate(-35 0)" fill="#2c7dbe" />
    <path
        d="M244.121567,137.372543c4.689056-7.455337,10.554733-10.02594,18.279037-6.470138c6.097168,2.806778,8.818573,10.817611,5.914429,17.254974-2.649872,5.87381-10.39743,9.416397-16.095505,7.359726-7.200073-2.598801-10.738067-10.284271-8.097961-18.144562Z"
        transform="translate(-21-25)" fill="#dc0b17" />
    <path
        d="M217.614182,198.461853c-.433167,12.656342-10.656113,16.717316-18.870545,13.266739-5.379623-2.25975-8.628601-8.110367-7.618576-14.058655c1.123184-6.614715,5.546845-10.225403,12.00589-10.729263c8.451996-.659348,12.247726,3.874756,14.483231,11.521179Z"
        transform="translate(-6-40)" fill="#dc0b17" />
    <path
        d="M203.264297,72.209839c11.04683-.148255,15.762955,9.638565,13.767106,16.816009-1.913697,6.882126-9.646241,10.760155-17.44072,8.601342-6.824234-1.890099-9.904907-11.300255-8.066849-16.494995c1.916794-5.417229,5.898987-8.03637,11.740463-8.922356Z"
        transform="translate(-6-8)" fill="#dc0b17" />
</svg>
