<svg width="298" height="168" viewBox="0 0 298 168" fill="none" xmlns="http://www.w3.org/2000/svg">
<path d="M144.93 105.227L177.608 161.671C179.043 164.152 177.25 167.259 174.373 167.259H109.017C106.14 167.259 104.347 164.152 105.782 161.671L138.46 105.227C139.894 102.746 143.496 102.746 144.93 105.227Z" fill="#004952"/>
<path d="M295.816 125.134L1.90443 83.2551" stroke="#004952" stroke-width="2.56118" stroke-linecap="round" stroke-linejoin="round"/>
<path d="M249.923 100.043C236.809 100.043 226.179 89.3971 226.179 76.2651C226.179 63.1331 236.809 52.4875 249.923 52.4875C263.037 52.4875 273.668 63.1331 273.668 76.2651C273.668 89.3971 263.037 100.043 249.923 100.043Z" fill="#E0D3C8"/>
<path d="M282.14 99.7075C275.924 108.137 266.628 113.779 256.265 115.415C234.502 118.836 214.095 103.955 210.679 82.1619C207.263 60.3689 222.124 39.9328 243.887 36.5125C260.681 33.8729 276.667 42.1448 284.66 56.0749" stroke="#004952" stroke-width="2.56118" stroke-linecap="round" stroke-linejoin="round"/>
<path d="M249.097 65.3821V88.0898" stroke="#004952" stroke-width="2.56118" stroke-linecap="round" stroke-linejoin="round"/>
<path d="M237.758 76.7375H260.434" stroke="#004952" stroke-width="2.56118" stroke-linecap="round" stroke-linejoin="round"/>
<path d="M43.561 70.7577C30.4472 70.7577 19.8164 60.1121 19.8164 46.9801C19.8164 33.8481 30.4472 23.2025 43.561 23.2025C56.6748 23.2025 67.3056 33.8481 67.3056 46.9801C67.3056 60.1121 56.6748 70.7577 43.561 70.7577Z" fill="#E0D3C8"/>
<path d="M7.03346 29.2854C11.5152 19.8158 19.555 12.4899 29.4098 8.88854C50.1097 1.34181 72.994 12.0158 80.5302 32.7445C88.0665 53.4731 77.4073 76.3892 56.7074 83.9359C40.7329 89.7598 23.4571 84.7203 12.9384 72.5891" stroke="#004952" stroke-width="2.56118" stroke-linecap="round" stroke-linejoin="round"/>
<path d="M31.3979 47.4524H54.0742" stroke="#004952" stroke-width="2.56118" stroke-linecap="round" stroke-linejoin="round"/>
</svg>

